<svg width="18" height="18" viewBox="0 0 18 18" fill="none" xmlns="http://www.w3.org/2000/svg">
<path d="M17.25 0C17.4489 0 17.6397 0.0790178 17.7803 0.21967C17.921 0.360322 18 0.551088 18 0.75C18 0.948912 17.921 1.13968 17.7803 1.28033C17.6397 1.42098 17.4489 1.5 17.25 1.5H16.881C16.7181 1.50028 16.5598 1.55357 16.4299 1.6518C16.3 1.75003 16.2056 1.88788 16.161 2.0445L13.782 10.3695C13.6474 10.8393 13.3636 11.2525 12.9733 11.5467C12.5831 11.8409 12.1077 12 11.619 12H4.7655C4.31573 12.0001 3.87626 11.8654 3.50381 11.6132C3.13135 11.3611 2.84301 11.0031 2.676 10.5855L0.465 5.0565C0.374107 4.82899 0.340324 4.58268 0.366604 4.3391C0.392885 4.09551 0.47843 3.86208 0.615759 3.65919C0.75309 3.4563 0.938025 3.29014 1.1544 3.17523C1.37078 3.06032 1.612 3.00015 1.857 3H14.328L14.7195 1.632C14.8537 1.16216 15.1372 0.748779 15.5272 0.454345C15.9172 0.15991 16.3924 0.000426552 16.881 0H17.25ZM11.25 18C10.9545 18 10.6619 17.9418 10.389 17.8287C10.116 17.7157 9.86794 17.5499 9.65901 17.341C9.45008 17.1321 9.28434 16.884 9.17127 16.611C9.0582 16.3381 9 16.0455 9 15.75C9 15.4545 9.0582 15.1619 9.17127 14.889C9.28434 14.616 9.45008 14.3679 9.65901 14.159C9.86794 13.9501 10.116 13.7843 10.389 13.6713C10.6619 13.5582 10.9545 13.5 11.25 13.5C11.8467 13.5 12.419 13.7371 12.841 14.159C13.2629 14.581 13.5 15.1533 13.5 15.75C13.5 16.3467 13.2629 16.919 12.841 17.341C12.419 17.7629 11.8467 18 11.25 18ZM5.25 18C4.95453 18 4.66194 17.9418 4.38896 17.8287C4.11598 17.7157 3.86794 17.5499 3.65901 17.341C3.45008 17.1321 3.28434 16.884 3.17127 16.611C3.0582 16.3381 3 16.0455 3 15.75C3 15.4545 3.0582 15.1619 3.17127 14.889C3.28434 14.616 3.45008 14.3679 3.65901 14.159C3.86794 13.9501 4.11598 13.7843 4.38896 13.6713C4.66194 13.5582 4.95453 13.5 5.25 13.5C5.84674 13.5 6.41903 13.7371 6.84099 14.159C7.26295 14.581 7.5 15.1533 7.5 15.75C7.5 16.3467 7.26295 16.919 6.84099 17.341C6.41903 17.7629 5.84674 18 5.25 18Z" fill="white"/>
</svg>
