<svg width="23" height="23" viewBox="0 0 23 23" fill="none" xmlns="http://www.w3.org/2000/svg">
<path d="M21.1133 0C21.3619 0 21.6004 0.0987722 21.7762 0.274588C21.952 0.450403 22.0508 0.68886 22.0508 0.9375C22.0508 1.18614 21.952 1.4246 21.7762 1.60041C21.6004 1.77623 21.3619 1.875 21.1133 1.875H20.652C20.4485 1.87535 20.2505 1.94196 20.0882 2.06475C19.9258 2.18754 19.8078 2.35984 19.752 2.55562L16.7783 12.9619C16.6101 13.5491 16.2553 14.0657 15.7675 14.4334C15.2797 14.8011 14.6854 15 14.0745 15H5.50766C4.94544 15.0001 4.39611 14.8317 3.93054 14.5165C3.46498 14.2014 3.10455 13.7539 2.89578 13.2319L0.132032 6.32062C0.0184155 6.03624 -0.0238132 5.72835 0.00903702 5.42387C0.0418873 5.11939 0.148817 4.82759 0.32048 4.57399C0.492144 4.32038 0.723312 4.11267 0.993782 3.96904C1.26425 3.8254 1.56579 3.75019 1.87203 3.75H17.4608L17.9502 2.04C18.1179 1.4527 18.4723 0.935974 18.9598 0.567931C19.4472 0.199888 20.0412 0.00053319 20.652 0H21.1133ZM13.6133 22.5C13.2439 22.5 12.8782 22.4273 12.537 22.2859C12.1958 22.1446 11.8857 21.9374 11.6245 21.6762C11.3634 21.4151 11.1562 21.105 11.0149 20.7638C10.8735 20.4226 10.8008 20.0568 10.8008 19.6875C10.8008 19.3182 10.8735 18.9524 11.0149 18.6112C11.1562 18.27 11.3634 17.9599 11.6245 17.6988C11.8857 17.4376 12.1958 17.2304 12.537 17.0891C12.8782 16.9477 13.2439 16.875 13.6133 16.875C14.3592 16.875 15.0746 17.1713 15.602 17.6988C16.1295 18.2262 16.4258 18.9416 16.4258 19.6875C16.4258 20.4334 16.1295 21.1488 15.602 21.6762C15.0746 22.2037 14.3592 22.5 13.6133 22.5ZM6.11328 22.5C5.74394 22.5 5.37821 22.4273 5.03698 22.2859C4.69576 22.1446 4.38571 21.9374 4.12454 21.6762C3.86338 21.4151 3.65621 21.105 3.51487 20.7638C3.37353 20.4226 3.30078 20.0568 3.30078 19.6875C3.30078 19.3182 3.37353 18.9524 3.51487 18.6112C3.65621 18.27 3.86338 17.9599 4.12454 17.6988C4.38571 17.4376 4.69576 17.2304 5.03698 17.0891C5.37821 16.9477 5.74394 16.875 6.11328 16.875C6.8592 16.875 7.57457 17.1713 8.10202 17.6988C8.62947 18.2262 8.92578 18.9416 8.92578 19.6875C8.92578 20.4334 8.62947 21.1488 8.10202 21.6762C7.57457 22.2037 6.8592 22.5 6.11328 22.5Z" fill="white"/>
</svg>
