<svg width="24" height="24" viewBox="0 0 24 24" fill="none" xmlns="http://www.w3.org/2000/svg">
<path d="M20.25 3C20.4489 3 20.6397 3.07902 20.7803 3.21967C20.921 3.36032 21 3.55109 21 3.75C21 3.94891 20.921 4.13968 20.7803 4.28033C20.6397 4.42098 20.4489 4.5 20.25 4.5H19.881C19.7181 4.50028 19.5598 4.55357 19.4299 4.6518C19.3 4.75003 19.2056 4.88788 19.161 5.0445L16.782 13.3695C16.6474 13.8393 16.3636 14.2525 15.9733 14.5467C15.5831 14.8409 15.1077 15 14.619 15H7.7655C7.31573 15.0001 6.87626 14.8654 6.50381 14.6132C6.13135 14.3611 5.84301 14.0031 5.676 13.5855L3.465 8.0565C3.37411 7.82899 3.34032 7.58268 3.3666 7.3391C3.39289 7.09551 3.47843 6.86208 3.61576 6.65919C3.75309 6.4563 3.93802 6.29014 4.1544 6.17523C4.37078 6.06032 4.612 6.00015 4.857 6H17.328L17.7195 4.632C17.8537 4.16216 18.1372 3.74878 18.5272 3.45434C18.9172 3.15991 19.3924 3.00043 19.881 3H20.25ZM14.25 21C13.9545 21 13.6619 20.9418 13.389 20.8287C13.116 20.7157 12.8679 20.5499 12.659 20.341C12.4501 20.1321 12.2843 19.884 12.1713 19.611C12.0582 19.3381 12 19.0455 12 18.75C12 18.4545 12.0582 18.1619 12.1713 17.889C12.2843 17.616 12.4501 17.3679 12.659 17.159C12.8679 16.9501 13.116 16.7843 13.389 16.6713C13.6619 16.5582 13.9545 16.5 14.25 16.5C14.8467 16.5 15.419 16.7371 15.841 17.159C16.2629 17.581 16.5 18.1533 16.5 18.75C16.5 19.3467 16.2629 19.919 15.841 20.341C15.419 20.7629 14.8467 21 14.25 21ZM8.25 21C7.95453 21 7.66194 20.9418 7.38896 20.8287C7.11598 20.7157 6.86794 20.5499 6.65901 20.341C6.45008 20.1321 6.28434 19.884 6.17127 19.611C6.0582 19.3381 6 19.0455 6 18.75C6 18.4545 6.0582 18.1619 6.17127 17.889C6.28434 17.616 6.45008 17.3679 6.65901 17.159C6.86794 16.9501 7.11598 16.7843 7.38896 16.6713C7.66194 16.5582 7.95453 16.5 8.25 16.5C8.84674 16.5 9.41903 16.7371 9.84099 17.159C10.2629 17.581 10.5 18.1533 10.5 18.75C10.5 19.3467 10.2629 19.919 9.84099 20.341C9.41903 20.7629 8.84674 21 8.25 21Z" fill="white"/>
</svg>
