<svg width="18" height="18" viewBox="0 0 18 18" fill="none" xmlns="http://www.w3.org/2000/svg">
<path d="M3 18C1.34315 18 0 16.6569 0 15C0 13.3431 1.34315 12 3 12H5C6.65685 12 8 13.3431 8 15C8 16.6569 6.65685 18 5 18H3ZM14 18C11.7909 18 10 16.2091 10 14V12C10 9.79086 11.7909 8 14 8C16.2091 8 18 9.79086 18 12V14C18 16.2091 16.2091 18 14 18ZM4 10C1.79086 10 0 8.20914 0 6V4C0 1.79086 1.79086 0 4 0C6.20914 0 8 1.79086 8 4V6C8 8.20914 6.20914 10 4 10ZM13 6C11.3431 6 10 4.65685 10 3C10 1.34315 11.3431 0 13 0H15C16.6569 0 18 1.34315 18 3C18 4.65685 16.6569 6 15 6H13Z" fill="#B9BABB"/>
</svg>
