<svg width="18" height="18" viewBox="0 0 18 18" fill="none" xmlns="http://www.w3.org/2000/svg">
<path d="M14.6577 13.4655C14.8162 13.624 14.9053 13.839 14.9053 14.0631C14.9053 14.2873 14.8162 14.5023 14.6577 14.6608C14.4992 14.8193 14.2842 14.9084 14.0601 14.9084C13.8359 14.9084 13.6209 14.8193 13.4624 14.6608L8.99826 10.1953L4.53271 14.6594C4.37421 14.8179 4.15922 14.907 3.93506 14.907C3.71089 14.907 3.49591 14.8179 3.3374 14.6594C3.17889 14.5009 3.08984 14.2859 3.08984 14.0617C3.08984 13.8376 3.17889 13.6226 3.3374 13.4641L7.80295 8.99994L3.33881 4.53439C3.1803 4.37588 3.09125 4.1609 3.09125 3.93674C3.09125 3.71257 3.1803 3.49759 3.33881 3.33908C3.49732 3.18057 3.7123 3.09152 3.93646 3.09152C4.16063 3.09152 4.37561 3.18057 4.53412 3.33908L8.99826 7.80463L13.4638 3.33838C13.6223 3.17987 13.8373 3.09082 14.0615 3.09082C14.2856 3.09082 14.5006 3.17987 14.6591 3.33838C14.8176 3.49689 14.9067 3.71187 14.9067 3.93603C14.9067 4.1602 14.8176 4.37518 14.6591 4.53369L10.1936 8.99994L14.6577 13.4655Z" fill="#FF0000"/>
</svg>
