<svg width="38" height="43" viewBox="0 0 38 43" fill="none" xmlns="http://www.w3.org/2000/svg">
<path d="M32.1998 19.1997C32.7819 19.1997 33.3509 19.03 33.8349 18.712C34.3189 18.3941 34.6961 17.9421 34.9189 17.4133C35.1416 16.8846 35.1999 16.3027 35.0864 15.7414C34.9728 15.18 34.6925 14.6644 34.2809 14.2597C33.8693 13.855 33.3449 13.5794 32.774 13.4677C32.2031 13.3561 31.6113 13.4134 31.0736 13.6324C30.5358 13.8514 30.0761 14.2223 29.7527 14.6982C29.4293 15.1741 29.2567 15.7336 29.2567 16.3059C29.2567 17.0734 29.5668 17.8095 30.1187 18.3522C30.6707 18.8948 31.4193 19.1997 32.1998 19.1997ZM20.8855 16.4536C21.2141 16.3555 21.5556 16.3057 21.899 16.3059C22.2968 16.3092 22.691 16.3804 23.064 16.5163L24.0052 13.5857C24.0713 13.3811 24.0904 13.1646 24.0609 12.9519C24.0314 12.7391 23.9541 12.5355 23.8347 12.3558C23.7152 12.176 23.5566 12.0247 23.3702 11.9127C23.1839 11.8007 22.9746 11.731 22.7574 11.7084C22.0505 11.627 21.3956 12.0966 21.181 12.764L19.8996 16.7533L20.8855 16.4536ZM7.53003 28.9862C7.57908 28.9747 7.62445 28.9536 7.67411 28.9434V27.3946C7.67572 25.4177 8.31083 23.4916 9.48922 21.8899C10.6676 20.2881 12.3294 19.0922 14.2384 18.4721L18.7573 17.0999L20.8518 10.5816C20.9176 10.3772 20.9364 10.161 20.9068 9.94852C20.8773 9.73608 20.8 9.53277 20.6807 9.35327C20.5614 9.17378 20.4031 9.0226 20.2171 8.91067C20.0311 8.79874 19.8221 8.72886 19.6053 8.70607C18.8983 8.62529 18.2429 9.09493 18.0283 9.76231L15.9773 16.1781C15.938 16.3001 15.8511 16.4018 15.7356 16.4607C15.6201 16.5197 15.4855 16.5311 15.3614 16.4925C15.2373 16.4539 15.1339 16.3684 15.074 16.2548C15.014 16.1413 15.0024 16.0089 15.0416 15.8869L17.7008 7.5799C17.7667 7.37549 17.7855 7.15924 17.7559 6.9468C17.7263 6.73437 17.6491 6.53105 17.5298 6.35156C17.4105 6.17206 17.2521 6.02088 17.0661 5.90895C16.8801 5.79702 16.6712 5.72714 16.4543 5.70436C15.7474 5.62357 15.0931 6.09321 14.8779 6.75999L11.9391 15.9062C11.8999 16.0282 11.8131 16.1299 11.6976 16.1889C11.5822 16.2479 11.4476 16.2595 11.3235 16.2209C11.1995 16.1824 11.096 16.097 11.036 15.9834C10.976 15.8699 10.9643 15.7376 11.0035 15.6156L13.3678 8.26055C13.4336 8.05613 13.4524 7.83989 13.4228 7.62745C13.3932 7.41501 13.316 7.21169 13.1967 7.0322C13.0774 6.85271 12.9191 6.70153 12.7331 6.5896C12.5471 6.47767 12.3381 6.40779 12.1212 6.385C11.4143 6.29819 10.7594 6.77024 10.5448 7.43762L6.86599 18.8832L6.73968 15.8658C6.7409 15.6758 6.70401 15.4873 6.63114 15.3113C6.55826 15.1352 6.45083 14.975 6.31497 14.8398C6.17912 14.7046 6.0175 14.5971 5.83935 14.5233C5.66121 14.4495 5.47002 14.411 5.27673 14.4099C4.46554 14.4069 3.76104 15.0453 3.75 15.8483V22.6446C3.76932 23.9326 4.12766 25.1938 4.79011 26.3051C5.45257 27.4165 6.39653 28.3402 7.53003 28.9862ZM33.6162 25.9519H23.8611C23.731 25.9519 23.6062 25.9011 23.5142 25.8107C23.4222 25.7202 23.3706 25.5975 23.3706 25.4696C23.3706 25.3417 23.4222 25.219 23.5142 25.1286C23.6062 25.0381 23.731 24.9873 23.8611 24.9873H31.7093C31.9274 24.9875 32.1428 24.94 32.3399 24.8482C32.537 24.7565 32.7109 24.6228 32.8491 24.4569C32.9872 24.2909 33.0861 24.0969 33.1386 23.8888C33.1911 23.6806 33.1959 23.4636 33.1526 23.2535C33.0184 22.5662 32.366 22.0935 31.6541 22.0935H19.4465L22.3337 21.065C22.5185 21.0089 22.6901 20.9175 22.8389 20.7962C22.9877 20.6748 23.1108 20.5258 23.201 20.3577C23.2912 20.1896 23.3469 20.0056 23.3649 19.8164C23.3828 19.6271 23.3627 19.4362 23.3056 19.2546C23.2485 19.073 23.1556 18.9042 23.0321 18.7579C22.9087 18.6116 22.7572 18.4906 22.5862 18.4019C22.4152 18.3131 22.2282 18.2584 22.0357 18.2407C21.8432 18.2231 21.649 18.2429 21.4643 18.299L14.8595 20.3036C13.3399 20.7948 12.0169 21.7452 11.0789 23.0193C10.141 24.2933 9.63608 25.826 9.63617 27.3988V28.9452C10.3437 29.0853 11.0108 29.3776 11.5899 29.8011C12.1689 30.2247 12.6455 30.7689 12.9854 31.3949C13.3253 32.0209 13.5202 32.713 13.556 33.4218C13.5917 34.1305 13.4676 34.8382 13.1924 35.4942C14.3353 36.1878 15.6508 36.5575 16.9939 36.5625H29.7473C29.9653 36.5627 30.1807 36.5152 30.3779 36.4234C30.575 36.3317 30.7489 36.198 30.887 36.0321C31.0251 35.8661 31.124 35.6721 31.1765 35.464C31.229 35.2558 31.2338 35.0388 31.1906 34.8287C31.0563 34.1414 30.4039 33.6687 29.6921 33.6687H23.8611C23.731 33.6687 23.6062 33.6179 23.5142 33.5275C23.4222 33.437 23.3706 33.3144 23.3706 33.1864C23.3706 33.0585 23.4222 32.9358 23.5142 32.8454C23.6062 32.7549 23.731 32.7041 23.8611 32.7041H31.7093C31.9274 32.7043 32.1428 32.6568 32.3399 32.565C32.537 32.4733 32.7109 32.3396 32.8491 32.1737C32.9872 32.0077 33.0861 31.8137 33.1386 31.6056C33.1911 31.3974 33.1959 31.1804 33.1526 30.9703C33.0184 30.283 32.366 29.8103 31.6541 29.8103H23.8611C23.731 29.8103 23.6062 29.7595 23.5142 29.6691C23.4222 29.5786 23.3706 29.4559 23.3706 29.328C23.3706 29.2001 23.4222 29.0774 23.5142 28.987C23.6062 28.8965 23.731 28.8457 23.8611 28.8457H33.6714C33.8895 28.8459 34.1048 28.7984 34.302 28.7066C34.4991 28.6149 34.673 28.4812 34.8111 28.3153C34.9493 28.1493 35.0482 27.9553 35.1007 27.7472C35.1532 27.539 35.158 27.322 35.1147 27.1119C34.9804 26.4246 34.328 25.9519 33.6162 25.9519ZM27.2947 9.55372C27.6827 9.55372 28.0621 9.44057 28.3847 9.22859C28.7074 9.0166 28.9589 8.7153 29.1074 8.36279C29.2559 8.01027 29.2947 7.62238 29.219 7.24815C29.1433 6.87392 28.9565 6.53017 28.6821 6.26036C28.4077 5.99056 28.0581 5.80682 27.6775 5.73238C27.2969 5.65794 26.9024 5.69615 26.5438 5.84217C26.1853 5.98818 25.8789 6.23545 25.6633 6.55271C25.4477 6.86996 25.3326 7.24296 25.3326 7.62452C25.3326 8.13617 25.5393 8.62687 25.9073 8.98867C26.2753 9.35046 26.7743 9.55372 27.2947 9.55372ZM8.65514 30.7749C8.07305 30.7749 7.50404 30.9447 7.02005 31.2626C6.53606 31.5806 6.15884 32.0326 5.93609 32.5613C5.71333 33.0901 5.65505 33.6719 5.76861 34.2333C5.88217 34.7946 6.16247 35.3103 6.57407 35.715C6.98566 36.1197 7.51007 36.3953 8.08097 36.5069C8.65188 36.6186 9.24363 36.5613 9.78141 36.3423C10.3192 36.1232 10.7788 35.7523 11.1022 35.2764C11.4256 34.8006 11.5982 34.2411 11.5982 33.6687C11.5982 32.9013 11.2882 32.1652 10.7362 31.6225C10.1843 31.0798 9.4357 30.7749 8.65514 30.7749Z" fill="black"/>
</svg>
