<svg width="21" height="20" viewBox="0 0 21 20" fill="none" xmlns="http://www.w3.org/2000/svg">
<path fill-rule="evenodd" clip-rule="evenodd" d="M11.7076 0.293031C11.52 0.105559 11.2657 0.000244141 11.0006 0.000244141C10.7354 0.000244141 10.4811 0.105559 10.2936 0.293031L3.29357 7.29303L1.29357 9.29303C1.19806 9.38528 1.12188 9.49562 1.06947 9.61763C1.01706 9.73963 0.989473 9.87085 0.988319 10.0036C0.987165 10.1364 1.01247 10.2681 1.06275 10.391C1.11303 10.5139 1.18728 10.6255 1.28117 10.7194C1.37507 10.8133 1.48672 10.8876 1.60962 10.9379C1.73251 10.9881 1.86419 11.0134 1.99697 11.0123C2.12975 11.0111 2.26097 10.9835 2.38297 10.9311C2.50498 10.8787 2.61532 10.8025 2.70757 10.707L3.00057 10.414V17C3.00057 17.7957 3.31664 18.5587 3.87925 19.1214C4.44186 19.684 5.20492 20 6.00057 20H16.0006C16.7962 20 17.5593 19.684 18.1219 19.1214C18.6845 18.5587 19.0006 17.7957 19.0006 17V10.414L19.2936 10.707C19.4822 10.8892 19.7348 10.99 19.997 10.9877C20.2592 10.9854 20.51 10.8803 20.6954 10.6948C20.8808 10.5094 20.986 10.2586 20.9882 9.99643C20.9905 9.73423 20.8897 9.48163 20.7076 9.29303L11.7076 0.293031Z" fill="#B9BABB"/>
</svg>
