<svg width="42" height="42" viewBox="0 0 42 42" fill="none" xmlns="http://www.w3.org/2000/svg">
<path d="M14.3568 30.8239C15.3003 30.8239 16.0651 30.059 16.0651 29.1156C16.0651 28.1721 15.3003 27.4072 14.3568 27.4072C13.4133 27.4072 12.6484 28.1721 12.6484 29.1156C12.6484 30.059 13.4133 30.8239 14.3568 30.8239Z" fill="black"/>
<path d="M21.1849 30.8239C22.1284 30.8239 22.8932 30.059 22.8932 29.1156C22.8932 28.1721 22.1284 27.4072 21.1849 27.4072C20.2414 27.4072 19.4766 28.1721 19.4766 29.1156C19.4766 30.059 20.2414 30.8239 21.1849 30.8239Z" fill="black"/>
<path d="M28.0208 30.8239C28.9643 30.8239 29.7292 30.059 29.7292 29.1156C29.7292 28.1721 28.9643 27.4072 28.0208 27.4072C27.0773 27.4072 26.3125 28.1721 26.3125 29.1156C26.3125 30.059 27.0773 30.8239 28.0208 30.8239Z" fill="black"/>
<path d="M22.8932 8.75255V6.90755C22.8932 5.96797 22.1245 5.19922 21.1849 5.19922C20.2453 5.19922 19.4766 5.96797 19.4766 6.90755V8.75255C13.6853 9.58963 9.22656 14.5438 9.22656 20.5742V22.2826C9.22656 23.2221 9.99531 23.9909 10.9349 23.9909H31.4349C32.3745 23.9909 33.1432 23.2221 33.1432 22.2826V20.5742C33.1432 14.5438 28.6845 9.58963 22.8932 8.75255Z" fill="black"/>
<path d="M14.3568 35.9489C15.3003 35.9489 16.0651 35.184 16.0651 34.2406C16.0651 33.2971 15.3003 32.5322 14.3568 32.5322C13.4133 32.5322 12.6484 33.2971 12.6484 34.2406C12.6484 35.184 13.4133 35.9489 14.3568 35.9489Z" fill="black"/>
<path d="M21.1849 35.9489C22.1284 35.9489 22.8932 35.184 22.8932 34.2406C22.8932 33.2971 22.1284 32.5322 21.1849 32.5322C20.2414 32.5322 19.4766 33.2971 19.4766 34.2406C19.4766 35.184 20.2414 35.9489 21.1849 35.9489Z" fill="black"/>
<path d="M28.0208 35.9489C28.9643 35.9489 29.7292 35.184 29.7292 34.2406C29.7292 33.2971 28.9643 32.5322 28.0208 32.5322C27.0773 32.5322 26.3125 33.2971 26.3125 34.2406C26.3125 35.184 27.0773 35.9489 28.0208 35.9489Z" fill="black"/>
</svg>
