<svg width="42" height="42" viewBox="0 0 42 42" fill="none" xmlns="http://www.w3.org/2000/svg">
<g clip-path="url(#clip0_83_18184)">
<path d="M20.7604 5.33398C16.6354 5.33398 12.6793 6.94777 9.76252 9.82032C6.84569 12.6929 5.20703 16.5889 5.20703 20.6513V30.8628C5.20703 32.217 5.75325 33.5156 6.72553 34.4732C7.6978 35.4307 9.01649 35.9686 10.3915 35.9686H12.7798C13.4218 35.9686 14.0511 35.7925 14.5972 35.46C15.1433 35.1275 15.5845 34.6518 15.8715 34.0863L16.1739 33.4906C15.615 33.1063 15.0921 32.6734 14.6117 32.1971C12.7124 30.3148 11.2556 27.5509 11.2556 24.0551C11.2556 22.8042 11.4699 21.5601 11.8587 20.3841C12.0315 19.8616 12.5102 19.8003 12.9837 19.8003C15.9043 19.8003 18.4879 18.3724 20.0536 16.1837C20.1333 16.0721 20.2392 15.9809 20.3622 15.918C20.4852 15.8551 20.6218 15.8223 20.7604 15.8223C20.899 15.8223 21.0356 15.8551 21.1586 15.918C21.2817 15.9809 21.3875 16.0721 21.4672 16.1837C22.2638 17.3017 23.3223 18.2141 24.553 18.8437C25.7837 19.4732 27.1503 19.8014 28.5371 19.8003C29.0106 19.8003 29.4911 19.8616 29.6622 20.3841C30.0571 21.5691 30.2606 22.8079 30.2653 24.0551C30.2653 27.5526 28.8084 30.3148 26.9092 32.1971C26.4167 32.6856 25.8896 33.1179 25.347 33.4906L25.6494 34.0863C25.9364 34.6518 26.3776 35.1275 26.9237 35.46C27.4697 35.7925 28.0991 35.9686 28.741 35.9686H31.1294C32.5044 35.9686 33.8231 35.4307 34.7953 34.4732C35.7676 33.5156 36.3138 32.217 36.3138 30.8628V20.6513C36.3138 16.5889 34.6752 12.6929 31.7583 9.82032C28.8415 6.94777 24.8854 5.33398 20.7604 5.33398Z" fill="black"/>
</g>
<defs>
<clipPath id="clip0_83_18184">
<rect width="41.4757" height="40.8462" fill="white" transform="translate(0.0234375 0.228516)"/>
</clipPath>
</defs>
</svg>
