<svg width="24" height="24" viewBox="0 0 24 24" fill="none" xmlns="http://www.w3.org/2000/svg">
<path fill-rule="evenodd" clip-rule="evenodd" d="M8.72222 7.77778C8.72222 6.77585 9.12024 5.81496 9.82871 5.10649C10.5372 4.39801 11.4981 4 12.5 4C13.5019 4 14.4628 4.39801 15.1713 5.10649C15.8798 5.81496 16.2778 6.77585 16.2778 7.77778C16.2778 8.77971 15.8798 9.7406 15.1713 10.4491C14.4628 11.1575 13.5019 11.5556 12.5 11.5556C11.4981 11.5556 10.5372 11.1575 9.82871 10.4491C9.12024 9.7406 8.72222 8.77971 8.72222 7.77778ZM8.72222 13.4444C7.46981 13.4444 6.2687 13.942 5.38311 14.8276C4.49752 15.7131 4 16.9143 4 18.1667C4 18.9181 4.29851 19.6388 4.82986 20.1701C5.36122 20.7015 6.08189 21 6.83333 21H18.1667C18.9181 21 19.6388 20.7015 20.1701 20.1701C20.7015 19.6388 21 18.9181 21 18.1667C21 16.9143 20.5025 15.7131 19.6169 14.8276C18.7313 13.942 17.5302 13.4444 16.2778 13.4444H8.72222Z" fill="#B9BABB"/>
</svg>
