<svg width="40" height="40" viewBox="0 0 40 40" fill="none" xmlns="http://www.w3.org/2000/svg">
<rect width="40" height="40" rx="4" fill="black"/>
<path d="M17 12.5C17.5967 12.5 18.169 12.2629 18.591 11.841C19.0129 11.419 19.25 10.8467 19.25 10.25C19.25 9.65326 19.0129 9.08097 18.591 8.65901C18.169 8.23705 17.5967 8 17 8C16.4033 8 15.831 8.23705 15.409 8.65901C14.9871 9.08097 14.75 9.65326 14.75 10.25C14.75 10.8467 14.9871 11.419 15.409 11.841C15.831 12.2629 16.4033 12.5 17 12.5ZM13.6484 19.5875C14.2297 19.3672 14.525 18.7203 14.3047 18.1391C14.0844 17.5578 13.4375 17.2625 12.8562 17.4828C10.0203 18.5516 8 21.2891 8 24.5C8 28.6437 11.3562 32 15.5 32C18.3687 32 20.8578 30.3922 22.1188 28.0297C22.4094 27.4812 22.2031 26.8016 21.6547 26.5062C21.1062 26.2109 20.4266 26.4219 20.1312 26.9703C19.25 28.625 17.5063 29.75 15.5 29.75C12.5984 29.75 10.25 27.4016 10.25 24.5C10.25 22.2547 11.6609 20.3375 13.6484 19.5875ZM20.1781 16.25L20.0891 15.7953C19.8781 14.75 18.9641 14 17.8953 14C16.4844 14 15.425 15.2891 15.7016 16.6719L16.7844 22.0859C17.0656 23.4875 18.2937 24.4953 19.7281 24.4953H24.4391C24.7531 24.4953 25.0297 24.6875 25.1422 24.9828L26.8438 29.525C27.125 30.2797 27.9594 30.6781 28.7234 30.4203L30.9734 29.6703C31.7609 29.4078 32.1828 28.5594 31.9203 27.7719C31.6578 26.9844 30.8094 26.5625 30.0219 26.825L29.1453 27.1156L27.95 23.9281C27.4016 22.4656 26 21.4953 24.4391 21.4953H21.2281L20.7781 19.2453H23.75C24.5797 19.2453 25.25 18.575 25.25 17.7453C25.25 16.9156 24.5797 16.2453 23.75 16.2453H20.1781V16.25Z" fill="white"/>
</svg>
