<svg width="28" height="36" viewBox="0 0 28 36" fill="none" xmlns="http://www.w3.org/2000/svg">
<path d="M22.75 0.5H5.25C3.85804 0.50139 2.52349 1.05496 1.53922 2.03922C0.554959 3.02349 0.00138988 4.35804 0 5.75V16.25H15.0255L11.0128 12.2372C10.694 11.9072 10.5176 11.4651 10.5216 11.0063C10.5256 10.5475 10.7096 10.1085 11.0341 9.78407C11.3585 9.4596 11.7975 9.27556 12.2563 9.27157C12.7151 9.26758 13.1572 9.44397 13.4872 9.76275L20.4872 16.7628C20.8153 17.0909 20.9996 17.536 20.9996 18C20.9996 18.464 20.8153 18.9091 20.4872 19.2372L13.4872 26.2373C13.1572 26.556 12.7151 26.7324 12.2563 26.7284C11.7975 26.7244 11.3585 26.5404 11.0341 26.2159C10.7096 25.8915 10.5256 25.4525 10.5216 24.9937C10.5176 24.5349 10.694 24.0928 11.0128 23.7628L15.0255 19.75H0V30.25C0.00138988 31.642 0.554959 32.9765 1.53922 33.9608C2.52349 34.945 3.85804 35.4986 5.25 35.5H22.75C24.142 35.4986 25.4765 34.945 26.4608 33.9608C27.445 32.9765 27.9986 31.642 28 30.25V5.75C27.9986 4.35804 27.445 3.02349 26.4608 2.03922C25.4765 1.05496 24.142 0.50139 22.75 0.5Z" fill="black"/>
</svg>
