<svg width="20" height="20" viewBox="0 0 20 20" fill="none" xmlns="http://www.w3.org/2000/svg">
<path d="M14.5009 0.25V1.75H17.1732L14.6419 4.3045C13.7372 3.62133 12.6347 3.25118 11.5009 3.25C10.0984 3.25 8.78894 3.805 7.79744 4.79725C7.30734 5.28144 6.91824 5.8581 6.6527 6.4938C6.38716 7.1295 6.25046 7.8116 6.25053 8.50053C6.2506 9.18947 6.38744 9.87153 6.65311 10.5072C6.91878 11.1428 7.30799 11.7194 7.79819 12.2035C8.45069 12.856 9.22769 13.3247 10.0947 13.5625C10.1802 13.4972 10.2762 13.429 10.3527 13.3525C10.6671 13.0328 10.8929 12.6368 11.0082 12.2035C10.1917 12.1027 9.4325 11.7312 8.85194 11.1483C8.14394 10.441 7.75094 9.502 7.75094 8.5C7.75094 7.498 8.14469 6.5605 8.85344 5.8525C9.55994 5.14225 10.4989 4.75 11.5009 4.75C12.5029 4.75 13.4412 5.14375 14.1484 5.8525C14.4984 6.19879 14.776 6.61115 14.9653 7.06564C15.1546 7.52012 15.2517 8.00768 15.2509 8.5C15.2509 9.14875 15.0672 9.7525 14.7589 10.3045C14.8309 10.6915 14.8759 11.098 14.8759 11.5C14.8759 11.8735 14.8444 12.2425 14.7822 12.6025C14.9322 12.4802 15.0657 12.3415 15.2044 12.2035C16.1959 11.2105 16.7509 9.9025 16.7509 8.5C16.7509 7.3525 16.3729 6.262 15.6964 5.359L18.2509 2.8285V5.5H19.7509V0.25H14.5009ZM9.90719 6.4375C9.82169 6.50275 9.72569 6.571 9.64919 6.6475C9.32519 6.973 9.11369 7.3675 8.99369 7.79725C9.81119 7.90225 10.5574 8.25925 11.1499 8.85175C11.8587 9.559 12.2524 10.498 12.2524 11.4993C12.2524 12.5005 11.8587 13.4387 11.1499 14.1467C10.4419 14.8577 9.50294 15.25 8.50094 15.25C7.49894 15.25 6.56069 14.8563 5.85344 14.1475C5.50323 13.8014 5.22539 13.3891 5.0361 12.9346C4.84682 12.48 4.74988 11.9924 4.75094 11.5C4.75094 10.8512 4.93469 10.2475 5.24294 9.6955C5.16763 9.30139 5.12847 8.90123 5.12594 8.5C5.12594 8.1265 5.15744 7.7575 5.21969 7.3975C5.06969 7.51975 4.93694 7.6585 4.79744 7.79725C3.80744 8.788 3.25094 10.0975 3.25094 11.5C3.25094 12.6475 3.62894 13.738 4.30544 14.641L3.04094 15.9062L1.54094 14.4062L0.460938 15.4608L1.96094 16.9608L0.460938 18.4608L1.54094 19.5408L3.04094 18.0408L4.54094 19.5408L5.59469 18.4608L4.09469 16.9608L5.36069 15.6962C6.26456 16.3805 7.3673 16.7505 8.50094 16.75C9.90344 16.75 11.2129 16.195 12.2044 15.2028C13.1959 14.212 13.7509 12.9025 13.7509 11.5C13.7509 10.0975 13.1959 8.7895 12.2037 7.7965C11.5512 7.144 10.7742 6.67525 9.90719 6.4375Z" fill="black" stroke="black" stroke-width="0.5"/>
</svg>
